<?xml version="1.0" encoding="utf-8"?>
<!-- Generator: Adobe Illustrator 16.0.0, SVG Export Plug-In . SVG Version: 6.00 Build 0)  -->
<!DOCTYPE svg PUBLIC "-//W3C//DTD SVG 1.1//EN" "http://www.w3.org/Graphics/SVG/1.1/DTD/svg11.dtd">
<svg version="1.1" id="Layer_1" xmlns="http://www.w3.org/2000/svg" xmlns:xlink="http://www.w3.org/1999/xlink" x="0px" y="0px"
	 width="3000px" height="3000px" viewBox="-1340 -1430.418 3000 3000" enable-background="new -1340 -1430.418 3000 3000"
	 xml:space="preserve">
<g>
	<path fill="#2ABABA" d="M-561.502,608.447c-39.487-14.697-76.251-53.857-87.028-92.647
		c-12.495-44.994-0.635-103.496,28.015-138.239c42.639-51.686,135.909-56.483,185.487-9.571c21.03,19.9,37.034,55.851,39.711,89.164
		l2.368,29.541h-209.247l3.201,10.595c7.93,26.287,19.159,43.002,36.698,54.612c15.813,10.467,24.205,12.543,50.717,12.543
		c28.325,0,34.139-1.695,53.791-15.537l22.034-15.53l16.046,12.229c8.827,6.738,16.047,14.942,16.047,18.25
		c0,8.533-17.688,23.644-42.406,36.233c-24.493,12.467-91.39,17.318-115.445,8.357H-561.502z M-450.795,436.031
		c-0.051-9.244-20.359-35.23-34.102-43.604c-17.108-10.428-50.084-12.468-66.319-4.095c-15.42,7.928-31.564,23.726-39.132,38.287
		l-6.745,12.955h73.159C-483.698,439.575-450.788,437.987-450.795,436.031z M-146.856,606.085
		c-19.378-10.213-34.781-24.819-43.918-41.642c-6.004-11.075-8.053-31.771-9.434-95.428l-1.773-81.265h-36.759v-47.133h37.687
		v-75.384h56.55v75.384h84.817v47.117h-84.817v75.613c0,73.977,0.248,75.841,11.565,87.162c9.434,9.442,16.267,11.565,37.126,11.565
		h25.576l5.4,21.45c2.968,11.795,4.156,23.461,2.635,25.913C-66.821,616.925-131.14,614.375-146.856,606.085z M503.38,608.362
		c-54.069-20.168-91.35-75.467-91.771-136.138c-0.327-48.262,32.872-102.516,75.834-123.921
		c34.957-17.433,87.018-17.692,119.156-0.612c26.652,14.179,26.362,14.149,26.362,2.353c0-8.279,3.141-9.425,25.904-9.425h25.92
		v268.576h-25.92c-22.779,0-25.913-1.146-25.913-9.427c0-11.703-0.061-11.703-24.59,1.161
		C585.164,613.091,527.083,617.201,503.38,608.362z M594.27,553.155c32.62-16.64,34.46-21.138,32.955-80.64l-1.328-53.138
		l-17.631-14.256c-13.454-10.861-23.713-14.742-43.361-16.377c-14.163-1.176-31.105-0.786-37.661,0.855
		c-16.706,4.186-45.269,30.435-52.833,48.563c-13.414,32.107-3.842,79.882,20.23,100.95
		C522.035,563.101,563.378,568.928,594.27,553.155z M828.41,607.447c-19.441-8.609-43.131-36.677-49.105-58.188
		c-2.72-9.794-4.949-50.144-4.965-89.66l-0.022-71.862h-37.699v-47.117h37.699v-75.384h56.537v75.384h84.817v47.117h-84.817v75.613
		c0,73.977,0.251,75.841,11.565,87.162c9.487,9.486,16.248,11.565,37.607,11.565c28.271,0,29.892,1.788,32.283,35.346l1,14.141
		l-35.338,1.085C856.415,613.305,837.087,611.289,828.41,607.447z M1042.855,609.5c-37.63-11.428-66.498-37.371-84.236-75.665
		c-23.59-50.931-12.995-120.156,24.437-159.637c34.377-36.224,102.288-49.837,147.108-29.471
		c40.158,18.242,71.036,65.207,76.291,116.031l2.666,25.935H999.305l2.987,14.911c6.997,34.957,46.431,64.979,85.359,64.979
		c20.733,0,52.901-12.743,63.015-24.957c9.336-11.283,15.699-9.779,32.674,7.738l15.078,15.553l-15.713,15.217
		c-22.298,21.62-57.629,33.872-96.274,33.375c-17.473-0.221-37.066-2.023-43.56-4.01H1042.855z M1146.55,432.868
		c0-9.594-22.345-34.834-38.02-42.946c-30.046-15.531-72.458-3.606-92.732,26.086c-5.837,8.55-10.595,17.335-10.595,19.549
		c0,2.201,31.794,4.003,70.669,4.003C1133.868,439.559,1146.55,438.368,1146.55,432.868z M-1091.598,408.942V208.691h41.454
		l71.823,114.257c39.509,62.848,82.438,120.416,82.438,120.416s15.966-18.074,75.899-113.081l75.218-119.24l22.131-1.437
		l22.127-1.437v401.484l-29.453-1.405l-29.457-1.406l-2.353-129.438l-2.353-129.438l-56.205,88.208l-56.197,88.211h-39.772
		l-58.2-90.708l-58.202-90.691l-1.249,133.104l-1.253,133.104h-56.396V408.942z M-341.28,405.414l1.232-203.798h51.824
		l1.233,203.798l1.231,203.781H-342.5L-341.28,405.414z M24.034,483.279c-27.81-69.386-51.901-129.874-53.516-134.411
		c-2.59-7.258,0.397-8.249,25.015-8.249h27.958l34.729,87.467c19.108,48.112,35.929,88.21,37.396,89.119
		c1.459,0.902,18.531-38.525,37.938-87.62l35.283-89.272l20.487,1.329l20.497,1.346l35.14,87.048
		c19.342,47.874,35.834,87.735,36.668,88.56c0.832,0.84,17.439-38.349,36.919-87.048l35.415-88.575l28.762-1.398
		c15.827-0.771,28.77-0.642,28.77,0.275c0,0.916-24.109,60.921-53.581,133.341l-53.589,131.653h-40.755l-33.827-84.534
		c-18.608-46.493-35.674-87.378-37.95-90.861c-2.812-4.315-15.553,22.505-40.164,84.535l-36.052,90.86l-20.495,1.299l-20.485,1.299
		L24.034,483.279z M1254.933,474.915V340.619h25.906c24.505,0,25.918,0.642,25.918,11.779c0,11.933,6.426,15.735,11.819,7.004
		c7.203-11.648,40.639-23.49,66.331-23.49h26.69l-2.949,14.722c-1.619,8.089-2.94,19.761-2.94,25.918
		c0,10.146-2.003,11.185-21.512,11.185c-24.866,0-36.148,4.928-57.409,25.058l-15.315,14.483v181.918h-56.539V474.915z
		 M-314.272,73.599c-73.829-58.125-156.625-148.593-209.652-229.085c-17.678-26.837-17.846-27.517-10.581-42.757
		c25.011-52.431,147.232-189.08,223.353-249.7l33.629-26.775l104.324,1.268l104.316,1.268l-36.63,24.534
		c-56.782,38.024-112.12,83.939-166.321,138.031c-60.887,60.763-103.547,111.888-103.547,124.076
		c0,13.094,42.011,62.515,109.193,128.457c61.404,60.261,107.582,98.636,163.194,135.598c18.633,12.392,33.877,23.422,33.877,24.529
		c0,1.085-46.175,1.987-102.605,1.987h-102.616L-314.272,73.599z M112.636,100.336C47.237,88.533,2.966,64.852-46.257,15.339
		c-103.332-103.942-112.2-260.196-21.528-379.15c37.842-49.631,89.883-83.323,157.294-101.822
		c68.955-18.918,153.728-6.275,217.812,32.482c59.272,35.831,102.434,89.474,126.558,157.293
		c10.496,29.503,12.301,42.481,12.39,88.748c0.094,47.117-1.588,59.1-12.924,91.884C410.663-29.601,361.978,31.611,306.717,63.993
		C254.572,94.561,169.182,110.542,112.636,100.336z M223.641-81.208c61.534-43.265,76.178-115.75,35.362-174.982
		c-27.218-39.503-83.695-61.278-127.947-49.338C39.222-280.754,5.854-172.286,68.934-103.58
		C113.5-61.717,180.931-51.511,223.641-81.22V-81.208z M387.938,102.796c0-1.23,18.99-15.019,42.229-30.634
		C489.17,32.486,546.425-16.492,607.149-79.242c64.169-66.3,87.057-94.286,87.057-106.458c0-19.744-120.593-146.657-197.97-208.342
		c-24.65-19.649-59.547-45.273-77.529-56.939l-32.712-21.194l104.886-1.276l104.893-1.268l36.233,29.536
		c81.739,66.637,150.842,141.324,202.315,218.662c30.412,45.71,30.97,40.503-10.55,98.31
		C766.899-49.052,697.275,23.531,621.55,82.599l-28.647,22.351l-102.48,0.038C434.061,105.012,387.938,104.019,387.938,102.796
		L387.938,102.796z"/>
</g>
</svg>
